<svg xmlns="http://www.w3.org/2000/svg" id="a" viewBox="0 0 400 400"><defs><style>.b{fill:#1c2f53;}</style></defs><path class="b" d="M369.26,82.76c-6.29-5.49-22.09-18.88-27.58-50.01l-44.06-17.28s-.8-.34-.8,0,0,.34-.34,.34c-11.79,12.25-53.1,3.2-95.67,3.2h-1.95c-42.57,0-83.89,9.04-95.67-3.2-.34-.34,0-.34-.34-.34h-.8l-43.72,17.28c-5.49,31.13-20.83,44.52-27.58,50.01,10.64,7.9,21.63,19.34,21.63,35.48,0,14.19-14.99,57.91-14.99,94.53,0,99.56,78.74,137.79,127.14,150.03,12.25,3.2,27.12,14.99,34.68,21.63,.34,.34,1.14,.34,1.95,0,7.44-6.64,22.43-18.54,34.68-21.63,48.41-12.25,127.14-50.01,127.14-149.57,0-36.62-15.34-80.68-15.34-94.53-.11-16.71,10.99-28.04,21.63-35.93M65.65,42.59c.34-1.6,.34-3.2,.34-4.35l35.48-13.05s.34,7.1,37.77,5.49c1.6,0,8.24-.34,10.19-.34,15.34-1.14,31.13-1.95,47.26-1.95h6.64c16.14,0,31.93,1.14,47.26,1.95,1.95,0,8.7,.34,10.19,.34,37.42,1.6,37.77-5.49,37.77-5.49l35.48,13.05c0,1.6,0,3.2,.34,4.35,3.55,14.99,10.64,29.18,21.29,40.17H44.36c10.64-11.1,17.74-25.18,21.29-40.17M353.81,213.11c0,100.36-84.23,132.29-120.51,141.33-12.25,3.2-25.98,13.05-33.42,19.34-7.9-6.29-21.29-16.14-33.42-19.34-36.28-9.04-120.51-40.97-120.51-141.33,0-21.63,5.49-46.12,9.84-65.8,2.75-9.5,4.35-19.34,5.15-28.72,0-9.84-3.2-19.34-9.5-27.12H347.97c-5.95,7.9-9.04,17.28-9.5,27.12,.8,9.84,2.4,19.34,5.15,28.72,4.69,19.68,10.19,44.06,10.19,65.8"></path><path class="b" d="M317.65,46.48v10.19c-8.7-.8-13.05-1.14-22.09-1.95v-10.99c-17.28-1.95-36.28-3.55-54.7-5.15v5.49c-1.14-3.55-3.89-5.49-9.5-5.95-10.64-.34-20.83-.8-31.47-.8v32.84l-16.94-32.73c-5.49,0-8.24,0-13.39,.34-5.15,9.84-9.84,19.68-14.99,29.53,0-1.14,.34-1.95,.34-3.2,0-5.49-1.6-7.9-6.29-8.24h0c2.75-.8,5.15-2.4,5.15-8.24,0-7.1-3.89-9.04-12.59-8.7-9.84,.8-20.03,1.6-29.87,2.75v29.87c-5.49-9.84-11.44-19.34-17.28-27.92-5.49,.8-8.24,1.14-13.39,1.95-5.95,9.5-11.79,18.88-18.54,27.58h11.79c1.14-1.95,1.95-2.75,3.2-4.69l21.29-.34,3.2,5.49h43.26c2.75,.34,5.49-.34,7.9-1.95-.34,.8-.8,1.14-1.14,1.95h11.79c1.14-2.4,1.95-3.89,3.2-6.29h21.29l3.2,6.29h20.03v-9.5h16.48c3.2,0,4.35,1.14,4.35,5.15v4.35h10.19v-5.95c0-5.95-2.4-7.1-5.49-7.9h0c4.69-1.14,5.95-3.89,5.95-8.7v-4.01l14.19,.8v25.63h10.19v-24.83c7.44,.34,11.44,.8,19.34,1.6v23.23h10.19v-11.44c8.7,.34,13.05,.8,22.09,1.14v9.84h10.19v-25.18c-3.89-.8-6.29-1.6-10.19-1.95M80.64,62.62c2.75-4.35,3.89-6.64,6.64-10.99,2.75,3.89,3.89,5.95,6.64,10.64l-13.28,.34m41.31-14.19c7.44-.34,10.99-.8,18.54-1.14,1.95,0,3.2,.34,3.2,2.75,0,1.95-1.14,2.75-3.2,2.75-7.44,.34-10.99,.34-18.54,.8v-5.15m18.88,16.94c-7.44,0-10.99,0-18.54,.34v-5.15c7.44-.34,10.99-.34,18.88-.8,2.4,0,3.89,.34,3.89,2.75s-1.83,2.86-4.23,2.86m29.53-5.84c2.75-5.49,3.89-8.24,6.64-13.73,2.75,5.49,3.89,8.24,6.64,13.73h-13.28m61-7.9c0,2.75-1.14,3.55-3.89,3.55l-17.28-.34v-8.24c6.64,0,9.84,0,16.14,.34,3.2,0,4.69,.8,4.69,3.89l.34,.8"></path><polygon class="b" points="225.86 275.25 238.45 273.65 249.9 265.41 249.9 299.63 232.62 301.69 225.86 297.34 225.86 275.25"></polygon><polygon class="b" points="224.72 299.28 232.16 303.97 249.1 302.49 223.12 332.7 212.47 323.66 210.53 316.56 224.72 299.28"></polygon><polygon class="b" points="208.58 317.82 210.53 324.92 220.37 333.96 189.24 340.6 186.15 331.55 188.44 325.72 208.58 317.82"></polygon><polygon class="b" points="186.5 325.72 183.75 331.55 186.95 341.4 153.08 313.82 160.98 310.73 186.5 325.72"></polygon><polygon class="b" points="173.11 203.61 124.7 239.89 113.71 217.34 135.68 213.11 161.32 171.68 134.2 187.47 149.87 130.83 95.63 185.07 110.51 260.72 187.75 222.49 173.11 203.61"></polygon><polygon class="b" points="225.06 177.97 283.43 161.04 272.33 139.06 254.59 155.2 206.18 150.05 236.16 137.12 181.8 115.03 257.79 104.73 308.6 163.1 231.81 200.86 225.06 177.97"></polygon><polygon class="b" points="211.33 181.98 201.14 194.57 185.01 194.91 189.24 221.69 230.21 201.66 211.33 181.98"></polygon><polygon class="b" points="271.98 246.18 268.44 250.07 246.01 251.67 243.6 243.44 267.63 241.03 268.44 230.39 265.23 234.28 241.66 235.88 239.25 227.99 263.74 226.04 265.23 215.05 261.68 218.94 237.31 220.55 234.9 213.11 259.74 210.71 261.68 199.72 258.59 203.61 232.62 203.27 188.44 225.24 173.56 245.38 168.41 245.72 178.26 250.87 195.19 232.79 199.89 239.09 183.75 257.51 178.6 257.97 188.1 263.46 204.69 245.38 209.38 251.67 193.59 269.41 188.9 269.76 197.6 275.71 214.08 257.97 219.23 264.61 204.23 281.54 199.08 282 208.13 287.84 223.92 270.9 225.06 272.96 237.77 270.9 249.55 262.66 247.95 259.11 270.84 256.71 271.98 246.18"></polygon><polygon class="b" points="158.92 307.52 137.74 316.22 152.62 262.66 158.92 307.52"></polygon></svg>