<svg xmlns="http://www.w3.org/2000/svg" xmlns:xlink="http://www.w3.org/1999/xlink" id="a" viewBox="0 0 400 400"><defs><style>.e{mask:url(#b);}.f{fill:#fff;}.f,.g{fill-rule:evenodd;}.g{fill:#1c2f53;}</style><mask id="b" x="15" y="14.95" width="370" height="370.1" maskUnits="userSpaceOnUse"><g id="c"><path id="d" class="f" d="M15,14.95H385V385.05H15V14.95Z"></path></g></mask></defs><g class="e"><path class="g" d="M200.19,22.5c-97.58,.05-176.32,78.06-177.7,174.88-1.42,99.33,78.09,179.63,176.46,180.15,98.89,.54,178.35-79.02,178.57-177.17,.23-98.19-79.39-177.88-177.33-177.88h0ZM15,190.06c.24-2.18,.49-4.36,.69-6.57,1.86-22.14,7.81-43.74,17.54-63.71,17.74-36.38,44.5-64.17,80.16-83.29,18.87-10.13,39.4-16.79,60.62-19.65,35.15-4.84,69.18-.59,101.41,14.29,54.2,25.02,88.88,66.79,104.22,124.51,2.91,10.92,4.42,22.09,5.04,33.37,.03,.59,.2,1.19,.31,1.78v18.5c-.11,.53-.24,1.07-.31,1.61-.87,7.32-1.36,14.74-2.67,21.98-6.78,37.79-23.9,70.29-50.8,97.61-14.71,14.9-31.89,27.15-50.77,36.2-20.22,9.8-42.06,15.78-64.45,17.66-2.25,.2-4.51,.45-6.75,.69h-18.49l-10.43-1.05c-21.79-2.24-42.52-8.21-62.11-17.96-33.58-16.71-59.87-41.32-78.66-73.79-13.5-23.25-21.66-49.22-23.88-76.01-.18-2.08-.45-4.12-.67-6.19v-19.98h0Z"></path></g><path class="g" d="M119.73,114.86c-21.36,19.82-34.02,43.62-38.01,72.13h38.01V114.86Zm-38.17,101.36c3.91,28.98,16.54,53.11,38.07,73.05v-73.05h-38.07Zm203.74-92.07c0,.55-.04,.67,0,.75l1.13,1.9c6.27,10.74,8.47,22.28,6.06,34.49-4.75,24.01-24.82,40.33-49.37,40.29h-24.65c-1.74,.09-2.86,1.05-2.87,2.48,0,1.51,1.12,2.47,3,2.47,10.79,.02,21.58,0,32.38,.03,1.64,0,3.3,.1,4.94,.3,13.49,1.67,24.64,13.05,25.78,26.3,1.27,14.86-7.32,28.02-21.09,31.89-3.31,.92-6.86,1.29-10.32,1.34-10.6,.18-21.21,.07-31.82,.07-.49,0-.99-.02-1.48,0-1.6,.12-2.61,1.1-2.57,2.51,.03,1.39,1.09,2.37,2.71,2.37,6.74,.02,13.5-.1,20.24,.03,8.09,.16,14.34,3.73,17.93,11.05,3.52,7.15,2.77,14.17-1.88,20.66-1.06,1.46-2.45,2.67-3.7,4.01,39.46-21.29,62.08-53.8,65.21-98.9,1.49-21.56-3.38-41.98-13.53-61.1-4.35-8.21-9.6-15.78-16.09-22.93Zm-91.87,1.11h2.03c6.92,0,13.85-.09,20.79,.03,3.98,.06,6.95-1.19,8.9-4.89,1.72-3.26,4.64-5.04,8.36-5.15,5.2-.15,10.41-.12,15.63-.16,4.59-.03,7.9-2.37,8.95-6.42,1.03-3.95-.81-7.71-4.85-9.87-18.17-9.77-38.62-14.52-59.24-13.75-15.04,.47-29.85,3.85-43.6,9.95-1.28,.55-1.7,1.21-1.7,2.57,.05,29.2,.03,58.39,.04,87.57,0,.63,.06,1.29,.1,2.1h35.32c-2.22,4.7-3.66,9.34-4.02,14.28-.36,4.92,.28,9.71,1.7,14.66h-33.13v2.16c0,29.37,.03,58.74-.02,88.11,0,1.51,.44,2.24,1.85,2.87,15.75,6.94,32.83,10.33,50.04,9.92,11.34-.24,22.59-2.13,33.4-5.61,5.34-1.72,8.9-7.56,8.03-13.15-.87-5.68-5.7-9.92-11.45-10.03-3.74-.03-7.48-.03-11.22,0-3.84,.03-7.58-.45-11.12-2.02-10.6-4.58-16.48-16.03-14.02-27.31,2.42-11.11,12.22-18.92,23.82-18.94,10.66-.02,21.33,0,32,0,.6,0,1.25,.05,1.83-.08,1.32-.27,2.23-1.19,1.91-2.46-.23-.87-1.16-1.66-1.94-2.29-.34-.28-1.07-.1-1.62-.1-10.28,0-20.6,.02-30.89-.02-1.9,0-3.82-.1-5.69-.42-18.39-3.02-30.32-19.48-27.52-37.94,2.15-14.23,14.54-26.19,28.87-27.19,8.43-.58,16.91-.2,25.37-.28,1.78,0,3.56,.04,5.32-.14,3-.32,5.28-2.82,5.34-5.83,.05-3-2.09-5.6-5.05-6.11-.97-.16-1.96-.16-2.94-.16h-49.97c1.4-5.39,5.54-10.94,10.4-13.91,.93-.56,1.98-.87,3.07-.89,8.58-.07,17.17-.04,25.75-.04,.55,0,1.11,.03,1.65-.03,1.46-.18,2.4-1,2.49-2.49,.1-1.57-.79-2.52-2.31-2.82-.54-.1-1.11-.06-1.65-.06-6.92,0-13.89-.4-20.79,.11-5.34,.4-9.15-1.54-12.46-5.36-2.22-2.52-4.42-5.02-5.75-8.42Zm4.55,200.47c-67.33,.1-123.69-54.25-123.64-123.64,.05-69.42,56.04-122.51,121.48-123.58,68.69-1.14,125.75,54.12,125.75,123.54s-56.04,123.78-123.62,123.68h.02Z"></path><path class="g" d="M277.83,93.96l-5.71-5.24c5.73-5.44,11.35-10.73,16.9-16.11,1.13-1.11,1.94-2.54,3.05-4.02,2.12,1.94,4.55,4.12,6.9,6.37,.24,.23,.1,.89,.05,1.34l-1.72,14.61c-.1,.79-.11,1.59-.18,2.62l11-2.37c1.81-.41,3.6-.78,5.39-1.24,1.08-.29,1.89-.14,2.72,.68,1.66,1.67,3.44,3.21,5.34,4.96l-17.38,22.48-5.69-5.19,11.31-15.08-21.03,4.82,2.73-21.52-13.69,12.9m-85.12-48.71v8.68c5.51,0,10.8,.04,16.09,0,3.04-.03,4.65-1.64,4.61-4.42-.04-2.64-1.88-4.3-4.81-4.31-2.58,0-5.17,.05-7.76,.06h-8.13m22.88,14.45c2.27,2.82,4.5,5.56,7.08,8.71-3.33,0-6.16,.06-8.99-.05-.51-.02-1.11-.56-1.46-1.01-1.59-1.98-3.07-4.01-4.67-5.98-.36-.45-.95-1.07-1.43-1.07-4.43-.08-8.86-.04-13.48-.04v8.32c-2.58,0-4.94-.03-7.33,0-1.46,.02-1.31-.92-1.31-1.78l-.1-13.28c0-2.7,.06-5.41-.07-8.11-.1-2.03-.46-4.05-.72-6.2,1.43-.06,3.26-.2,5.1-.21,7.44-.05,14.87-.11,22.31-.08,4.92,.02,8.95,2.59,10.56,6.55,1.78,4.34,.8,9.39-2.43,12.16-.86,.73-1.9,1.29-3.07,2.06m139.2,130.29c-.19-4.67-.89-8.27-3.24-11.29-3.72-4.76-10.52-3.82-12.57,1.92-2.01,5.63-1.08,11.08,2.61,15.67,3.46,4.33,9.94,3.19,12.09-1.98,.66-1.61,.88-3.43,1.11-4.32m-23.34-5.06c.67-2.88,1.01-5.9,2.09-8.6,4.02-10.01,15.14-11.96,21.76-3.6,6.15,7.75,7.5,16.78,3.73,26.07-3.98,9.84-15.63,11.08-22.08,2.65-3.18-4.16-5.13-10.43-5.49-16.52m19.78-43.9l-5.32,3.3-11-24.12-4.32,2.64,7.59,16.8-5.32,3.29c-2.55-5.6-5.04-11.09-7.62-16.72l-4.55,2.77,11.47,25.29-5.34,3.31-15.14-33.33c6.66-4.12,13.19-8.11,19.68-12.24,1.68-1.06,3.19-2.49,4.94-3.88l14.93,32.88m-96.8-68.82c4.35,.12,7.48-1.54,8.86-4.51,1.38-2.97,.63-6.23-2.2-8.54-3.38-2.79-7.67-4.25-12.05-4.07-4.05,.1-6.8,1.95-7.94,5.03-1.13,3.07-.12,6.08,2.9,8.4,3.09,2.36,6.72,3.46,10.42,3.7m1.42,6.26c-7.6-.36-14.35-2.54-19.38-7.9-7.88-8.36-3.3-19.82,8.7-21.46,9.08-1.25,16.95,1.48,23.02,7.69,4.05,4.15,5.1,9.06,2.47,14.19-2.61,5.12-7.53,7.15-13.51,7.48-.43,.02-.86,0-1.31,0m-121.53-4.52l-11.42-7.19v13.55l11.42-6.36m19.12,3.17c-2.43,1.38-4.55,2.65-6.75,3.75-.45,.23-1.48,.02-1.87-.36-2.87-2.75-5.49-2.2-8.59-.12-3.73,2.47-7.79,4.48-11.77,6.64-.96,.52-1.58,1.09-1.34,2.23,.85,3.68-.62,6.03-4.26,7.26-.95,.33-1.79,.96-3.2,1.73,0-3.13,.04-5.8,0-8.46-.12-6.96-.19-13.94-.44-20.91-.05-1.52-.79-3.03-1.34-4.98,2.74-1.51,6.07-3.38,9.43-5.16,.33-.16,1.02,.1,1.4,.35,9.45,5.91,18.9,11.87,28.72,18.03M50.64,191.32c.56-4.17,1.09-7.97,1.66-12.06l-11.21,4.1,9.55,7.95m13.81-23.8c-.33,2.37-.59,4.71-1.02,7.02-.1,.45-.83,1.01-1.32,1.07-3.27,.4-4.18,2.64-4.43,5.93-.33,4.18-1.05,8.33-1.68,12.48-.19,1.17-.07,2.05,.95,2.57,2.83,1.45,3.56,3.78,2.57,6.95-.31,1.02-.34,2.15-.52,3.51-1.19-.99-2.25-1.82-3.28-2.7-5.63-4.75-11.22-9.55-16.9-14.24-1.07-.87-2.47-1.26-4.03-2.04,.4-2.89,.87-6.36,1.42-9.79,.05-.37,.55-.74,.93-.87,8.92-3.32,17.85-6.63,26.79-9.9,.1-.04,.21,0,.52,0m31.2-89.02l4.29,3.87c-5.18,5.36-10.28,10.66-15.43,15.96l4.71,4.65c3.69-3.78,7.25-7.45,11.02-11.33l3.77,4.39-10.21,10.58,6.24,6.1-5.14,5.34c-2.88-2.62-5.71-5.18-8.52-7.76-2.89-2.63-5.72-5.32-8.67-7.88-.91-.79-2.15-1.21-3.36-1.88l21.31-22.03m-24.87,79.11l-15.68-8.21c-2.09-1.09-4.11-2.27-6.26-3.24-1.23-.55-2.62-.73-4.16-1.14l4.01-8.01,20.14,10.55c3.26-6.51,6.53-12.96,9.89-19.62,1.85,.99,3.61,1.91,5.52,2.91l-13.45,26.76m132.12-14.89c-1.27,1.19-2.32,2.09-3.31,3.1-3.27,3.31-5.48,7.4-7.06,11.89-1.1,3.1-2.57,5.93-5.04,8.05-2.6,2.23-5.41,2.01-8.5,1.09,1.27-2.34,2.22-4.71,5.14-4.79,.41,0,.98-.72,1.19-1.26,1.71-4.33,2-8.93,2.11-13.56,.03-1-.59-1.43-1.41-1.09-.71,.31-1.36,.74-1.93,1.26-2.02,1.86-4.99,2.24-7.42,.97-2.53-1.16-3.8-3.8-3.32-6.72,.5-2.76,2.8-4.84,5.6-5.06,1.95-.24,3.91,.43,5.3,1.82,.32,.32,.67,.6,1.06,.83,1.48,.79,2.3,.36,2.11-1.38-.49-4.1-1.08-8.18-1.78-12.25-.21-1.25-.91-1.96-2.34-2.18-2.34-.32-3.21-2.54-4.25-4.66,3.11-.97,6.12-1.29,8.53,1.26,1.6,1.68,3.2,3.66,4.05,5.83,2.54,6.52,5.46,12.64,11.29,16.86m4.92-32.02h12.35c1.71,0,2.6,.86,2.49,2.47-.11,1.85-1.11,2.37-2.47,2.37-8.24-.02-16.48,0-24.71-.02-1.74,0-2.52-.82-2.47-2.53,.06-1.96,1.12-2.31,2.46-2.3,4.11,.03,8.23,0,12.35,0m23.42-7.39c0,1.96-1.58,3.54-3.53,3.55-.07,0-.14,0-.2,0-1.95-.03-3.52-1.64-3.5-3.59,0-2.06,1.61-3.67,3.65-3.66,1.96-.02,3.57,1.55,3.59,3.51,0,.07,0,.13,0,.2m-23.32-3.69c1.97,.01,3.55,1.62,3.54,3.58,0,.06,0,.12,0,.17-.02,1.94-1.61,3.49-3.55,3.47-.08,0-.16,0-.24-.01-1.92-.02-3.46-1.6-3.44-3.52,0-.03,0-.07,0-.1-.02-1.97,1.57-3.58,3.54-3.6,.05,0,.11,0,.16,0m-13.59,3.56c-.04-1.93,1.5-3.53,3.44-3.57,.09,0,.18,0,.26,0,1.95,.07,3.5,1.65,3.53,3.6,.02,1.99-1.58,3.61-3.57,3.63-.03,0-.06,0-.09,0-2.16,0-3.59-1.48-3.56-3.67"></path></svg>