<svg xmlns="http://www.w3.org/2000/svg" id="a" viewBox="0 0 400 400"><defs><style>.b{fill:#1c2f53;}</style></defs><path class="b" d="M207.07,335.2h-33.58V64.8h70.69c1.77,0,3.53,0,5.3,3.53,17.67,28.28,30.04,61.86,33.58,98.97,1.77,15.91,1.77,30.04,1.77,45.95v121.94h-33.58v-100.74c0-5.3,0-7.07-3.53-5.3h-42.42l1.77,106.04Zm0-157.29h45.95v-1.77c0-21.21-12.45-61.86-14.22-61.86h-28.43q-3.53,0-3.53,7.07l.23,56.55Z"></path><path class="b" d="M49.78,229.16h42.42v-51.25H51.55v-61.86h51.25c1.77,0,1.77-1.77,1.77-5.3v-45.95H16.2V335.2H49.78v-106.04Z"></path><path class="b" d="M318.41,335.2h33.58V114.29h31.81v-49.48h-98.97v51.25h31.81v219.15h1.77Z"></path><path class="b" d="M118.7,335.2h33.58V64.8h-33.58V335.2Z"></path></svg>