<svg xmlns="http://www.w3.org/2000/svg" id="a" viewBox="0 0 400 400"><defs><style>.b{fill:#1c2f53;}</style></defs><path class="b" d="M199.09,126.71C92.05,126.71,5.29,159.63,5.29,200c0,40.58,86.75,73.29,193.8,73.29s193.59-32.71,193.59-73.29-86.75-73.29-193.59-73.29Zm0,139.14c-102.7,0-186.14-29.19-186.14-65.63s83.44-66.05,186.14-66.05,186.34,29.61,186.34,66.05c-.21,36.44-83.44,65.63-186.34,65.63Z"></path><path class="b" d="M199.09,139.54c-99.59,0-180.34,27.12-180.34,60.46s80.54,60.67,180.34,60.67,180.34-27.12,180.34-60.67-80.75-60.46-180.34-60.46Zm-88.2,97.73c-10.77,0-20.5-7.04-20.7-19.88-.21-7.66,6.21-17.18,17.81-20.08,1.45,0,1.86,.41,1.86,1.24,0,.41-.41,1.04-1.66,1.66-3.31,1.24-9.32,7.87-9.32,14.08,0,4.56,2.9,9.73,7.66,10.77,1.45,.41,2.69,.21,3.93,.21,12.22,0,25.67-13.67,40.37-34.37-2.28,.21-12.42,1.24-14.91,4.14-1.04,.83-1.86,.41-2.07-.62,0-.21,.41-1.04,.83-1.66,3.93-4.56,15.94-5.59,18.84-5.8,10.27-15.79,23.33-26.15,27.8-27.73h-.05c-9.52-2.29-18.43-4.15-25.26-4.15-24.02,0-34.78,10.35-34.37,19.88,.21,3.93,3.31,6.42,8.07,5.59,4.97-.83,12.01-5.59,13.67-9.73,.41-.83,1.45-1.04,1.66-.83,.83,.62,.41,1.45,.41,1.45-.62,4.97-8.07,18.43-21.12,18.43-7.25,0-12.22-6.83-12.01-13.46,.21-12.42,12.84-24.85,43.89-24.85,5.8,0,12.42,.41,19.67,1.66,8.28,1.45,29.19,4.97,46.17,5.18,6.21,0,14.29,.21,20.7-.83,6.83-1.04,5.38-1.45,8.07-1.45,2.9,.21,2.9,1.24,2.9,2.28,0,3.93-14.08,11.59-25.88,11.59-17.14,0-34.99-7.7-44.57-10.27,.23,.35,.33,.82,.05,1.37-.21,.21-1.45,1.66-1.86,2.07-2.48,2.28-10.97,7.66-20.29,23.4,7.45-.41,16.15-1.86,16.15-1.86,0,0-.41-1.66-.41-2.9,.41-5.38,3.52-8.7,7.45-8.07,2.28,.41,3.73,2.28,3.73,4.35s-1.66,5.18-3.31,6.83c-1.24,.62-2.48,1.45-3.93,2.28,0,1.45,1.86,2.48,3.52,2.69-.41,1.45-.21,2.07-.83,1.86-3.73,0-5.18-3.73-5.18-3.73-4.97,.83-9.94,1.45-19.67,2.48-24.85,40.17-32.51,46.79-47.83,46.79Zm171.23-6.63c5.38-.21,15.32-10.56,17.6-13.04,.41-.62,1.45-1.66,1.86-1.66s1.45,.41,1.45,1.24c0,.41-1.04,2.28-2.07,3.52-4.97,6.21-13.25,15.94-22.57,16.15-4.55,0-6.42-1.86-7.04-5.59-2.07,1.86-9.32,5.18-16.77,5.18-6.21-.21-8.7-3.73-9.94-6.63-1.04-2.28-1.66-5.8-.83-9.32-3.31,1.66-6.42,2.07-10.97,1.86-5.18-.21-8.49-2.48-10.15-8.7-6,10.97-6.21,11.39-12.42,22.78h-10.56l13.67-23.19c1.66-3.11,2.69-5.59,3.31-8.28,.41-1.45-.83-2.9-2.28-2.9-1.66,0-4.55,1.66-7.45,4.35,0,0-7.04,7.45-12.22,15.11-4.97,7.25-13.25,15.53-22.36,15.53-6.63,0-12.63-3.73-13.87-10.56,0,0-.62,1.66-6.42,4.97-.41,.21-1.66,1.04-2.07,.83-1.04-1.04-1.66-2.28-1.86-3.11,.41,.21,1.04-.41,3.52-2.28,4.55-3.52,5.59-6.21,5.59-6.21,1.04-2.28,3.11-6.21,4.56-8.7,3.73-7.45,10.15-15.11,20.91-15.53,1.66,0,2.28,.83,2.69,1.45,1.04,.83,.62,2.28,.62,2.28-7.45,1.04-12.63,5.59-15.74,9.73-1.86,2.69-3.93,7.25-4.35,10.56-.83,5.59,1.86,9.32,5.8,10.15,7.25,1.04,13.25-4.14,18.01-12.22,1.24-2.07,2.07-7.66,2.07-10.56s-1.66-6.21-2.9-7.45c0-2.07,1.45-3.52,2.9-3.52,.41,0,1.04,0,1.45,.41,2.48,2.48,3.93,7.25,3.93,10.77,0,1.24,0,2.48-.21,3.73,5.18-6.42,11.8-14.7,16.98-16.15,1.04-.41,2.07-.41,2.9-.41,9.32-.21,8.07,8.28,8.07,8.28,4.97-5.8,8.49-7.87,13.04-7.66,4.97,.21,6.83,3.73,6.83,6.42-.21,3.31-2.48,7.04-6.63,7.04-3.73,0-5.8-1.66-6.83-4.97-2.28,.83-3.52,2.48-3.93,5.8-.83,4.14,2.28,7.45,6.42,7.45,6.83-.21,9.94-3.11,12.42-5.38,8.49-8.07,13.25-16.36,25.47-16.15,7.45,.21,9.32,6,10.56,8.49l16.15-27.33h9.94l-26.71,47.41c-.41,1.04-1.66,2.9-1.66,4.35,.21,2.28,3.31,1.66,2.07,1.66Z"></path><path class="b" d="M272.18,201.86c-4.35-.41-9.94,3.31-14.29,8.7-2.28,2.69-4.55,8.07-4.97,11.18-.41,3.11,.41,6.21,1.45,7.04s6.21,3.52,13.87-4.35c4.35-4.35,8.7-11.59,8.7-11.59l-1.45-.41c2.69-4.76,2.07-9.94-3.31-10.56Z"></path><path class="b" d="M183.35,182.4c.83-.83,2.07-2.9,1.66-4.56-.21-.83-.41-1.66-1.45-1.45-1.86,.41-2.9,1.24-3.52,3.11-.41,2.07-.21,3.31,.21,4.97,0,0,1.24,.21,3.11-2.07Z"></path></svg>