<svg xmlns="http://www.w3.org/2000/svg" id="a" viewBox="0 0 400 400"><defs><style>.b{fill:#1c2f53;}</style></defs><path class="b" d="M369.14,151.08C293.74,86.2,74.14,78.28,10.69,175.96c-13.45,24.28-3.39,52.64,16.85,70.32,42.48,44.56,170.08,62.94,247.01,43.8,92.8-19.18,160.46-77.29,94.59-139Zm-170.21-35.04c22.12-.25,44.29,1.3,66.1,5.04,8.66,1.48,17.26,3.32,25.75,5.56,25.46,6.18,17.74,15.71,1.38,22.34-62.83,32.99-167.43,77.97-122.34-16.08,4.15-9.3,10.41-14.07,16.14-16.5,4.28-.19,8.61-.32,12.97-.37ZM43.7,242.11c-58.47-52.08,1.18-99.93,81.94-117.94,7.13-.2,8.23,2.81,8.05,5.1,.41,2.78-10.17,12.56-11.61,14.69-22.12,22.21-47.02,76.93-54.97,95.19-4.72,12.21-17.72,5.54-23.42,2.96Zm157.2,40.82c-38.9,.46-74.98-4.86-104.5-14.28-.31-.17-8.7-4.85,3.25-10.85,12.17-6.12,74.48-40.83,107.36-43.82,57.86-5.87,34.27,48.07,9.97,68.44-5.29,.28-10.65,.46-16.07,.52Zm178.56-84.28c-2.42,46.45-72.68,69.84-111.13,77.39h0c-.09,0-1.42-.16,1.17-3.71,10.48-15.12,56.66-99.65,66.77-118.3,0,0,3.02-8.68,19.05,2.19,13.07,10.22,24.6,25.09,24.14,42.43Z"></path></svg>