<svg id="Grupo_4131" data-name="Grupo 4131" xmlns="http://www.w3.org/2000/svg" xmlns:xlink="http://www.w3.org/1999/xlink" width="18.497" height="18.497" viewBox="0 0 18.497 18.497">
  <defs>
    <clipPath id="clip-path">
      <rect id="Rectángulo_1331" data-name="Rectángulo 1331" width="18.497" height="18.497" fill="#fff"/>
    </clipPath>
  </defs>
  <g id="Grupo_4130" data-name="Grupo 4130" clip-path="url(#clip-path)">
    <path id="Trazado_851" data-name="Trazado 851" d="M16.82,7.576,12.792,5.563a4.151,4.151,0,1,0-.6.994L16.3,8.609a.578.578,0,0,0,.518-1.034M9.046,6.936a2.89,2.89,0,1,1,2.89-2.89,2.89,2.89,0,0,1-2.89,2.89" transform="translate(0.78)" fill="#fff"/>
    <path id="Trazado_852" data-name="Trazado 852" d="M18.447,13.451l-.61-1.385a.577.577,0,0,0-.412-.332l-4.839-1L9.94,9.345A3.2,3.2,0,0,0,8.5,9H5.16a3.715,3.715,0,0,0-1.652.616c-.343.232-1.17.891-1.46,1.125l-1.32.317a.579.579,0,0,0-.443.565l.015,1.6L.008,14.92a.578.578,0,0,0,.458.665l1.843.351h.11a1.724,1.724,0,0,0,3.255,0h5.993a1.724,1.724,0,0,0,3.255,0h3a.578.578,0,0,0,.578-.578V13.684a.576.576,0,0,0-.05-.234M3.468,15.358A.574.574,0,0,1,4,14.791a.38.38,0,0,1,.05-.01.38.38,0,0,1,.05.01.574.574,0,1,1-.628.568m9.249,0a.577.577,0,0,1,.563-.575l.015,0,.015,0a.576.576,0,1,1-.593.575m4.624-.578-2.419,0a1.723,1.723,0,0,0-3.257,0l-5.99,0a1.723,1.723,0,0,0-3.261,0L1.241,14.56l.156-.935h.338a.578.578,0,0,0,0-1.156h-.29v-.393l1-.24a.571.571,0,0,0,.228-.113c.309-.247,1.177-.939,1.486-1.148a2.838,2.838,0,0,1,1-.417H8.5a2.157,2.157,0,0,1,.854.185L12.12,11.8a.578.578,0,0,0,.151.054l4.628.956.442,1Z" transform="translate(0 1.405)" fill="#fff"/>
  </g>
</svg>
