<svg xmlns="http://www.w3.org/2000/svg" xmlns:xlink="http://www.w3.org/1999/xlink" width="18.518" height="18.503" viewBox="0 0 18.518 18.503">
  <defs>
    <clipPath id="clip-path">
      <rect id="Rectángulo_1330" data-name="Rectángulo 1330" width="18.518" height="18.503" fill="#fff"/>
    </clipPath>
  </defs>
  <g id="Grupo_4129" data-name="Grupo 4129" transform="translate(0 0)">
    <g id="Grupo_4128" data-name="Grupo 4128" transform="translate(0 0)" clip-path="url(#clip-path)">
      <path id="Trazado_849" data-name="Trazado 849" d="M13.133,8.852a.571.571,0,0,1-.27-.067L10.629,7.609,8.4,8.785a.574.574,0,0,1-.61-.044.581.581,0,0,1-.23-.567l.427-2.492L6.175,3.917A.579.579,0,0,1,6.5,2.928l2.5-.365L10.111.3a.6.6,0,0,1,1.037,0l1.118,2.267,2.5.365a.579.579,0,0,1,.321.988L13.276,5.682,13.7,8.173a.581.581,0,0,1-.23.567.572.572,0,0,1-.34.111m-2.5-2.478a.571.571,0,0,1,.27.067l1.465.771-.28-1.634a.578.578,0,0,1,.167-.513l1.186-1.159L11.8,3.668a.583.583,0,0,1-.436-.317l-.733-1.487L9.9,3.351a.583.583,0,0,1-.436.317l-1.639.238L9.008,5.065a.578.578,0,0,1,.167.513l-.28,1.634,1.465-.771a.571.571,0,0,1,.27-.067" transform="translate(0.944 0)" fill="#fff"/>
      <path id="Trazado_850" data-name="Trazado 850" d="M18.468,13.443l-.611-1.387a.578.578,0,0,0-.412-.332l-4.845-1L9.951,9.332a3.2,3.2,0,0,0-1.439-.345H5.165A3.719,3.719,0,0,0,3.511,9.6c-.344.233-1.171.892-1.462,1.126l-1.322.317a.58.58,0,0,0-.443.566l.015,1.6-.292,1.7a.578.578,0,0,0,.458.665l1.845.352h.11a1.726,1.726,0,0,0,3.259,0h6a1.726,1.726,0,0,0,3.259,0h3a.579.579,0,0,0,.579-.579V13.677a.577.577,0,0,0-.05-.234m-15,1.91A.575.575,0,0,1,4,14.784a.381.381,0,0,1,.05-.01.381.381,0,0,1,.05.01.575.575,0,1,1-.628.568m9.259,0a.577.577,0,0,1,.564-.575l.015,0,.015,0a.577.577,0,1,1-.594.575m4.629-.579-2.421,0a1.725,1.725,0,0,0-3.26,0l-6,0a1.725,1.725,0,0,0-3.265,0l-1.176-.231.156-.936h.338a.579.579,0,0,0,0-1.157h-.29v-.394l1-.241a.572.572,0,0,0,.228-.113c.309-.248,1.178-.94,1.487-1.149a2.841,2.841,0,0,1,1-.418H8.512a2.159,2.159,0,0,1,.855.185l2.766,1.456a.578.578,0,0,0,.152.054l4.633.957.442,1Z" transform="translate(0 1.415)" fill="#fff"/>
    </g>
  </g>
</svg>
