<svg id="Grupo_4127" data-name="Grupo 4127" xmlns="http://www.w3.org/2000/svg" xmlns:xlink="http://www.w3.org/1999/xlink" width="18.164" height="18.164" viewBox="0 0 18.164 18.164">
  <defs>
    <clipPath id="clip-path">
      <rect id="Rectángulo_1329" data-name="Rectángulo 1329" width="18.164" height="18.164" fill="#fff"/>
    </clipPath>
  </defs>
  <g id="Grupo_4126" data-name="Grupo 4126" clip-path="url(#clip-path)">
    <path id="Trazado_846" data-name="Trazado 846" d="M12.568,4.27a.568.568,0,0,0,.568-.568V2.568a.568.568,0,1,0-1.135,0V3.7a.568.568,0,0,0,.568.568" transform="translate(1.623 0.27)" fill="#fff"/>
    <path id="Trazado_847" data-name="Trazado 847" d="M15.758,0H8.947a1.132,1.132,0,0,0-.8.333L5.874,2.6a1.106,1.106,0,0,0-.225.339A5.677,5.677,0,0,0,1,8.514V9.65a.568.568,0,0,0,1.135,0V8.514a4.547,4.547,0,0,1,3.643-4.45.932.932,0,0,0,.1.144l2.27,2.27a1.132,1.132,0,0,0,.8.333h6.811a1.136,1.136,0,0,0,1.135-1.135V1.135A1.136,1.136,0,0,0,15.758,0m0,5.676H8.947l-2.27-2.27,2.27-2.27h6.811Z" transform="translate(0.135)" fill="#fff"/>
    <path id="Trazado_848" data-name="Trazado 848" d="M18.115,13.371l-.6-1.36a.566.566,0,0,0-.4-.326L12.359,10.7l-2.6-1.365A3.143,3.143,0,0,0,8.35,9H5.067a3.648,3.648,0,0,0-1.622.605c-.337.228-1.149.875-1.434,1.1l-1.3.311a.568.568,0,0,0-.435.555l.015,1.573L.008,14.814a.567.567,0,0,0,.45.653l1.81.345h.108a1.693,1.693,0,0,0,3.2,0h5.885a1.693,1.693,0,0,0,3.2,0H17.6a.568.568,0,0,0,.568-.568V13.6a.566.566,0,0,0-.049-.229M3.406,15.244a.564.564,0,0,1,.519-.557.373.373,0,0,1,.049-.01.373.373,0,0,1,.049.01.564.564,0,1,1-.616.557m9.082,0a.566.566,0,0,1,.553-.564l.015,0,.015,0a.566.566,0,1,1-.582.564m4.541-.568-2.375,0a1.692,1.692,0,0,0-3.2,0l-5.882,0a1.692,1.692,0,0,0-3.2,0l-1.153-.227.153-.918H1.7a.568.568,0,0,0,0-1.135H1.418V12.02l.983-.236a.561.561,0,0,0,.224-.111c.3-.243,1.156-.922,1.459-1.127a2.787,2.787,0,0,1,.984-.41H8.35a2.118,2.118,0,0,1,.839.182L11.9,11.745a.567.567,0,0,0,.149.053l4.544.939.434.982Z" transform="translate(0 1.217)" fill="#fff"/>
  </g>
</svg>
