<svg id="Grupo_4135" data-name="Grupo 4135" xmlns="http://www.w3.org/2000/svg" xmlns:xlink="http://www.w3.org/1999/xlink" width="18.854" height="16.497" viewBox="0 0 18.854 16.497">
  <defs>
    <clipPath id="clip-path">
      <rect id="Rectángulo_1332" data-name="Rectángulo 1332" width="18.854" height="16.497" fill="#fff"/>
    </clipPath>
  </defs>
  <g id="Grupo_4134" data-name="Grupo 4134" clip-path="url(#clip-path)">
    <path id="Trazado_853" data-name="Trazado 853" d="M18.854,2.946a3.037,3.037,0,0,0-.059-.589h0a2.935,2.935,0,0,0-5.231-1.176l-.012,0H5.3l-.012,0A2.935,2.935,0,0,0,.06,2.357h0a2.975,2.975,0,0,0,0,1.178h0A2.935,2.935,0,0,0,5.291,4.711h8.272a2.935,2.935,0,0,0,5.231-1.176h0a3.037,3.037,0,0,0,.059-.589M15.908,4.713a1.764,1.764,0,0,1-1.659-1.181H4.605a1.757,1.757,0,0,1-3.318,0H2.946a.589.589,0,1,0,0-1.178H1.287a1.757,1.757,0,0,1,3.318,0h9.644a1.757,1.757,0,0,1,3.318,0H15.908a.589.589,0,0,0,0,1.178h1.659a1.762,1.762,0,0,1-1.659,1.178" fill="#fff"/>
    <path id="Trazado_854" data-name="Trazado 854" d="M18.8,11.537l-.622-1.412a.588.588,0,0,0-.42-.338L12.829,8.768l-2.7-1.416A3.263,3.263,0,0,0,8.667,7H5.259a3.786,3.786,0,0,0-1.684.628c-.35.237-1.193.909-1.488,1.147L.741,9.1a.59.59,0,0,0-.451.576l.015,1.633-.3,1.727a.589.589,0,0,0,.467.678l1.878.358h.112a1.757,1.757,0,0,0,3.318,0h6.109a1.757,1.757,0,0,0,3.318,0h3.054a.589.589,0,0,0,.589-.589V11.775a.587.587,0,0,0-.051-.238M3.535,13.481a.585.585,0,0,1,.539-.579.388.388,0,0,1,.051-.011.388.388,0,0,1,.051.011.585.585,0,1,1-.64.579m9.427,0a.588.588,0,0,1,.574-.586l.015,0,.015,0a.588.588,0,1,1-.6.586m4.713-.589-2.465,0a1.756,1.756,0,0,0-3.319,0l-6.105,0a1.757,1.757,0,0,0-3.324,0l-1.2-.236.159-.953h.344a.589.589,0,0,0,0-1.178h-.3v-.4l1.02-.245a.582.582,0,0,0,.232-.115c.315-.252,1.2-.957,1.514-1.17a2.893,2.893,0,0,1,1.022-.425H8.667a2.2,2.2,0,0,1,.871.189l2.816,1.482a.589.589,0,0,0,.154.055l4.717.975.45,1.019Z" transform="translate(0 1.249)" fill="#fff"/>
  </g>
</svg>
