<svg xmlns="http://www.w3.org/2000/svg" id="a" viewBox="0 0 400 400"><defs><style>.b{fill:#1c2f53;}</style></defs><path class="b" d="M52.57,138.31c2.26,0,4.52-1.13,5.66-1.13s1.13,0,1.13-1.13h-4.52c-3.39,0-5.66,2.26-5.66,2.26h3.39"></path><path class="b" d="M12.98,162.06l-1.13-1.13c-1.13-2.26-1.13-4.52,0-5.66,2.26-3.39,7.92-7.92,7.92-7.92v-1.13c-1.13-2.26,0-3.39,0-3.39,10.18-12.44,38.46-13.57,38.46-13.57,54.3-2.26,135.74,31.67,135.74,31.67,41.85,15.84,70.13,29.41,70.13,29.41,24.89,12.44,73.53,39.59,88.23,46.38,0,0,7.92,3.39,18.1,0,4.52-1.13,7.92-3.39,10.18-4.52,0,0,5.66-1.13,7.92,3.39,1.13,1.13,0,4.52-1.13,7.92-7.92,13.57-27.15,11.31-35.07,10.18,2.26,2.26,4.52,4.52,4.52,7.92,0,0-3.39,5.66-6.79,7.92-9.05,4.52-16.97-3.39-24.89-11.31-5.66-5.66-7.92-5.66-11.31-7.92-7.92-4.52-14.71-3.39-24.89-3.39l-14.71,1.13c-33.94,3.39-42.98-21.49-50.9-32.8-2.26-3.39-7.92-7.92-14.71-7.92h-9.05c-29.41,3.39-39.59,2.26-52.03-2.26-7.92,9.05-27.15,3.39-27.15,3.39-5.66-2.26-35.07-12.44-38.46-13.57-5.66-1.13-6.79,3.39-6.79,3.39-5.66,12.44-15.84,12.44-16.97,12.44,0,0-11.31-3.39-5.66-15.84,2.26-4.52,9.05-14.71,21.49-16.97,4.52-1.13,9.05-2.26,13.57-2.26-15.84-11.31-24.89-9.05-24.89-9.05,0,0-7.92,1.13-14.71,6.79-2.26,2.26-3.39,4.52-5.66,6.79,0,0-1.13,2.26-3.39,2.26-4.52,0-7.92-3.39-7.92-3.39-1.13-1.13,0-2.26,0-3.39l1.13-1.13q0-1.13-1.13-2.26v-2.26s2.26,1.13,3.39,1.13h0c2.26,0,3.39-4.52,3.39-4.52,1.13-5.66,0-9.05-2.26-10.18-2.26-1.13-4.52,0-5.66,1.13-1.13,1.13-2.26,3.39-2.26,5.66v3.39c0,1.13,1.13,3.39,2.26,4.52,0,0-3.39,0-4.52-2.26l-1.13,1.13c-4.52,0-7.92-2.26-9.05-3.39-1.13-1.13-1.13-3.39-2.26-4.52m3.39-4.52s-1.13,3.39,1.13,5.66h0s2.26,2.26,4.52,2.26h1.13s1.13-1.13,2.26-4.52c0,0,2.26-5.66,3.39-6.79,0,0,1.13-2.26,4.52-3.39,0,0,6.79-1.13,9.05,7.92,1.13,5.66,0,9.05-6.79,16.97l-2.26,2.26s-1.13,1.13,0,1.13c0,0,3.39,1.13,4.52,1.13s1.13,0,7.92-9.05c0,0,11.31-3.39,10.18-12.44,0,0,0-4.52-2.26-7.92,0,0,4.52,0,9.05,7.92v1.13s1.13,4.52,4.52,4.52c0,0,7.92,1.13,18.1,6.79,2.26,1.13,7.92,4.52,7.92,4.52-1.13-3.39-2.26-7.92,0-13.57h0s0,15.84,28.28,24.89c-13.57-1.13-19.23-5.66-28.28-7.92h-12.44c-12.44,2.26-19.23,5.66-24.89,16.97-4.52,7.92,3.39,12.44,3.39,12.44,1.13,0,2.26-1.13,3.39-1.13-2.26,0-9.05-4.52-2.26-13.57,0,0-4.52,9.05,5.66,11.31,2.26-1.13,5.66-4.52,5.66-7.92,1.13-2.26,4.52-5.66,11.31-3.39,32.8,9.05,35.07,10.18,37.33,10.18,21.49,4.52,23.75-6.79,23.75-6.79,4.52-10.18-7.92-26.02-7.92-26.02,20.36,15.84,48.64,15.84,48.64,15.84-18.1,3.39-36.2-2.26-39.59-3.39,0,0,5.66,7.92,3.39,15.84,0,0,12.44,9.05,50.9,4.52,9.05-1.13,12.44,0,12.44,0,0-4.52-7.92-11.31-7.92-11.31,7.92,3.39,15.84,13.57,16.97,15.84,1.13,1.13,2.26,2.26,3.39,4.52,3.39,5.66,15.84,30.54,44.12,28.28l15.84-1.13s20.36-2.26,29.41,4.52c5.66,4.52,6.79,4.52,10.18,7.92,4.52,3.39,12.44,13.57,21.49,14.71,2.26,0,4.52-1.13,6.79-2.26-7.92,2.26-12.44-2.26-13.57-3.39,9.05,2.26,12.44,1.13,15.84-1.13,0-2.26-3.39-5.66-5.66-6.79-6.79-3.39-9.05-6.79-12.44-10.18-2.26-2.26-7.92-9.05-10.18-11.31-3.39-2.26-6.79-5.66-15.84-5.66h-22.62c-3.39,0-5.66-1.13-7.92-3.39-2.26-2.26-4.52-4.52-5.66-6.79s-2.26-5.66-5.66-10.18c-2.26-3.39-4.52-5.66-4.52-5.66,4.52,2.26,6.79,3.39,9.05,7.92,6.79,9.05,11.31,11.31,14.71,13.57,5.66,2.26,21.49,2.26,28.28,3.39,5.66,1.13,10.18,4.52,11.31,5.66,3.39,3.39,6.79,6.79,10.18,10.18,9.05,10.18,20.36,11.31,20.36,11.31,5.66,1.13,14.71,0,20.36-1.13,4.52-2.26,7.92-5.66,9.05-7.92s0-3.39-1.13-4.52c-2.26-2.26-7.92,2.26-11.31,3.39,0,0-10.18,3.39-23.75-2.26,0,0-50.9-26.02-55.43-29.41-28.28-15.84-72.4-32.8-90.49-39.59-13.57-5.66-33.94-12.44-33.94-12.44-30.54-10.18-49.77-15.84-49.77-15.84,4.52,4.52,10.18,15.84,10.18,15.84-18.1-26.02-52.03-22.62-52.03-22.62-11.31-2.26-19.23,5.66-19.23,5.66-1.13,1.13,1.13,1.13,1.13,1.13,12.44,3.39,19.23,18.1,19.23,18.1-14.71-12.44-23.75-13.57-23.75-13.57-10.18-1.13-10.18-5.66-10.18-5.66,9.05,2.26,14.71-3.39,15.84-5.66l1.13-1.13c-15.84-1.13-23.75,1.13-23.75,1.13-14.71,3.39-16.97,6.79-18.1,7.92,0,1.13-1.13,4.52,3.39,3.39,0,0,1.13-5.66,5.66-6.79h6.79s-3.39,6.79-10.18,7.92h-3.39c0,2.26-5.66,2.26-7.92,9.05m10.18-10.18h2.26c3.39-1.13,4.52-3.39,4.52-3.39h-3.39c-2.26,0-2.26,2.26-3.39,3.39,1.13,0,0,0,0,0"></path></svg>