<svg xmlns="http://www.w3.org/2000/svg" id="a" viewBox="0 0 400 400"><defs><style>.b{fill-rule:evenodd;}.b,.c{fill:#1c2f53;}</style></defs><path class="c" d="M74.1,123.2h31.18v82c0,14.12-6.03,43.69-49.29,43.69s-47.94-27.56-47.94-43.02v-15.12h30.18v14.79c0,9.08,6.04,17.48,17.43,17.48s18.44-6.39,18.44-17.14V123.2Z"></path><path class="c" d="M74.1,123.2h31.18v82c0,14.12-6.03,43.69-49.29,43.69s-47.94-27.56-47.94-43.02v-15.12h30.18v14.79c0,9.08,6.04,17.48,17.43,17.48s18.44-6.39,18.44-17.14V123.2Z"></path><path class="c" d="M170.99,192.77c0-8.4-4.69-16.47-15.42-16.47s-14.08,7.39-14.08,16.47h29.5Zm-17.43-35.29c24.48,0,45.93,9.41,45.93,52.77h-58c0,13.78,5.7,19.49,15.76,19.49s13.41-8.07,13.41-8.07h28.5c0,12.44-17.1,29.24-42.92,28.9-29.5,0-43.92-21.84-43.92-44.36s12.74-48.73,41.24-48.73"></path><path class="c" d="M264.2,192.77c0-8.4-4.69-16.47-15.42-16.47s-14.08,7.39-14.08,16.47h29.5Zm-17.43-35.29c24.48,0,45.93,9.41,45.93,52.77h-58c0,13.78,5.7,19.49,15.76,19.49s13.41-8.07,13.41-8.07h28.5c0,12.44-17.1,29.24-42.92,28.9-29.5,0-43.92-21.84-43.92-44.36s12.74-48.73,41.24-48.73"></path><path class="c" d="M328.53,205.2c-.33,17.14,3.35,26.22,17.43,26.22s16.09-15.46,16.09-27.22-2.68-23.19-17.43-23.19c-9.05,0-15.76,7.06-16.09,24.2m-28.5,71.59v-115.95h28.83s0,10.19,0,13.21c1.04-2.24,1.77-3.78,4.02-6.49,1.95-2.35,7.38-9.07,21.79-9.07s36.88,10.08,36.88,45.71c0,27.56-13.41,47.72-36.54,47.72-12.74,0-18.45-4.45-21.79-7.06-2.13-1.66-2.81-2.43-4.02-4.04,0,2.35,0,35.97,0,35.97h-29.17Z"></path><path class="b" d="M383.16,263.36c1.17,0,2.04,.11,2.58,.34,.98,.41,1.47,1.21,1.47,2.4,0,.85-.31,1.47-.93,1.87-.33,.21-.79,.36-1.37,.46,.74,.12,1.29,.43,1.63,.93,.34,.5,.52,.99,.52,1.47v.7c0,.22,0,.46,.02,.71,.02,.25,.04,.42,.08,.49l.06,.12h-1.56s-.02-.06-.02-.09c0-.03-.02-.07-.02-.11l-.04-.31v-.75c0-1.1-.3-1.82-.89-2.18-.35-.2-.97-.31-1.85-.31h-1.32v3.74h-1.67v-9.49h3.31Zm1.79,1.49c-.41-.23-1.08-.35-2.01-.35h-1.42v3.44h1.5c.7,0,1.23-.07,1.59-.21,.65-.26,.98-.75,.98-1.48,0-.69-.21-1.15-.63-1.39m4.49,9.41c-1.68,1.69-3.72,2.54-6.11,2.54s-4.42-.85-6.09-2.54c-1.67-1.69-2.5-3.73-2.5-6.13s.84-4.41,2.52-6.1c1.68-1.68,3.7-2.52,6.07-2.52,2.39,0,4.42,.84,6.11,2.52,1.68,1.68,2.52,3.71,2.52,6.1,0,2.4-.84,4.44-2.52,6.13m-11.34-11.39c-1.44,1.45-2.16,3.21-2.16,5.26s.72,3.84,2.15,5.3c1.44,1.46,3.19,2.19,5.25,2.19s3.81-.73,5.25-2.19c1.44-1.46,2.16-3.23,2.16-5.3s-.72-3.81-2.16-5.26c-1.45-1.46-3.2-2.19-5.25-2.19s-3.79,.73-5.24,2.19"></path></svg>