<svg xmlns="http://www.w3.org/2000/svg" id="a" viewBox="0 0 400 400"><defs><style>.b{fill:#1c2f53;}</style></defs><path class="b" d="M314.35,217.08h-5.28l-3.1,9.73h5.07c1.16-.09,2.3-.3,3.42-.62,1-.24,1.91-.78,2.59-1.55,.75-.8,1.31-1.75,1.66-2.79,.51-1.12,.51-2.4,0-3.52,0-.83-1.86-1.24-4.04-1.24"></path><path class="b" d="M239.43,185.72c1.82-.06,3.59-.56,5.17-1.45,1.51-.89,2.79-2.13,3.73-3.62,1.62-2.63,2.9-5.44,3.83-8.38,1.52-3.22,2.13-6.8,1.76-10.35-.72-1.86-2.48-2.79-5.59-2.79h-2.9l-9.21,26.29,3.21,.31Z"></path><path class="b" d="M134.6,217.08h-5.28l-3.1,9.73h4.55c1.16-.1,2.3-.31,3.42-.62,.96-.27,1.82-.81,2.48-1.55,.75-.8,1.31-1.76,1.66-2.79,.5-1.12,.5-2.4,0-3.52-.62-.83-1.97-1.24-4.14-1.24"></path><path class="b" d="M157.88,160.99l-10.35,17.28h8.38l1.97-17.28Z"></path><path class="b" d="M200,114.83c99.14,0,179.96,38.29,179.96,85.17s-80.82,85.17-179.96,85.17S20.04,246.36,20.04,200,100.86,114.83,200,114.83Zm96.35,61.37l-17.59,15.42,32.29-15.21,6.52-10.35-32.7,.52-3.42,10.35,14.9-.72Zm-57.95-27.63l-17.18,48.12h17.39c2.5-.1,4.97-.55,7.35-1.35,2.44-.82,4.69-2.12,6.62-3.83,2.44-2.1,4.57-4.54,6.31-7.24,2.34-3.76,4.22-7.79,5.59-12,1.1-3.02,1.9-6.14,2.38-9.31,.52-2.56,.52-5.2,0-7.76-.47-2.06-1.69-3.86-3.42-5.07-2.58-1.43-5.56-1.97-8.49-1.55h-16.56Zm-113.42,48.12h12l4.14-7.97h13.35l-.93,7.97h12.21l2.69-48.22h-12.31l-31.15,48.22Zm-34.98,0h29.91l4.14-11.9h-18.21l12.73-36.32h-11.69l-16.87,48.22Zm12.73,27.63l-14.38,.52,17.18-15.42-32.29,15.21-6.52,10.35,33.01-.72,3-9.93Zm48.74-3.62c.96-2.43,1.21-5.09,.72-7.66-.31-1.91-1.55-3.54-3.31-4.35-2.58-.93-5.33-1.31-8.07-1.14h-20.39l-15.52,47.6h12.11l6.31-19.14h1.03c1-.06,1.96,.37,2.59,1.14,.63,1.11,.98,2.35,1.03,3.62l1.66,14.59h13.56l-1.24-13.87c-.14-1.02-.39-2.03-.72-3-.28-.87-.66-1.71-1.14-2.48-.74-.74-1.62-1.34-2.59-1.76,1.71-.37,3.35-.99,4.86-1.86,2.03-1.22,3.82-2.8,5.28-4.66,1.72-2.07,3.02-4.46,3.83-7.04Zm45.02,10.35c2.5-5.67,2.72-12.08,.62-17.9-2.62-4.49-7.67-6.98-12.83-6.31-6.24-.01-12.26,2.31-16.87,6.52-5.34,4.94-9.23,11.23-11.28,18.21-1.7,4.41-2.34,9.16-1.86,13.87,.31,3.19,1.87,6.13,4.35,8.18,3.08,1.95,6.71,2.86,10.35,2.59,4.11,.05,8.17-.95,11.8-2.9,3.66-2.11,6.83-4.97,9.31-8.38,3.01-4.15,5.32-8.76,6.83-13.66l-.41-.21Zm13.45-34.25l16.87-48.22h-11.18l-9.31,26.7-4.86-26.6h-11.07l-16.87,48.02h10.97l9.31-26.49,4.86,26.49,11.28,.1Zm10.35,58.47l29.91-47.6h-12.63l-19.77,34.25,2.48-34.25h-12.52l-.93,47.6h13.45Zm62.09-29.91h-18.63l2.48-7.55h19.77l3.31-10.35h-32.08l-15.52,47.6h32.7l3.52-10.35h-20.7l3.1-9.31h18.63l3.42-10.04Zm48.74-4.55c.94-2.44,1.19-5.09,.72-7.66-.33-1.9-1.56-3.53-3.31-4.35-2.62-.94-5.4-1.33-8.18-1.14h-20.08l-15.52,47.6h11.59l6.73-19.25h1.03c.99-.04,1.95,.38,2.59,1.14,.61,1.11,.93,2.36,.93,3.62l1.66,14.59h13.56l-1.35-13.87c-.13-1.02-.37-2.03-.72-3-.29-.87-.67-1.7-1.14-2.48-.75-.74-1.63-1.33-2.59-1.76,1.67-.37,3.28-1,4.76-1.86,2.03-1.21,3.82-2.79,5.28-4.66,1.72-2.07,3.02-4.46,3.83-7.04l.21,.1Z"></path><path class="b" d="M180.23,217.8c-2.62,.11-5.08,1.26-6.83,3.21-2.64,2.97-4.56,6.51-5.59,10.35-1.4,3.26-1.79,6.86-1.14,10.35,.7,2.05,2.7,3.37,4.86,3.21,2.67-.02,5.22-1.15,7.04-3.1,2.7-3.22,4.64-7,5.69-11.07,1.39-3.08,1.76-6.53,1.03-9.83-.75-2.05-2.8-3.33-4.97-3.1"></path><path class="b" d="M200,104.28c104.62,0,190,43.05,190,95.72s-85.38,95.72-190,95.72S10,252.67,10,200,95.38,104.28,200,104.28m0,186.27c102.35,0,186.27-40.46,186.27-90.14s-83.93-90.55-186.27-90.55S14.24,150.33,14.24,200s83.41,90.14,186.27,90.14"></path></svg>