<svg xmlns="http://www.w3.org/2000/svg" id="a" viewBox="0 0 400 400"><defs><style>.b{fill:#1c2f53;}</style></defs><path class="b" d="M165.56,350v-13.43h68.88v13.43h-68.88Z"></path><path class="b" d="M200,377.93h21.68v-20.88h-43.35v20.88h21.68"></path><path class="b" d="M178.32,329.66c0-11.57-3.06-22.87-12.37-30.45h68.09c-9.18,7.71-12.23,18.88-12.37,30.45h-43.35Z"></path><path class="b" d="M120.74,276.86v-9.97h158.51v9.97H120.74Z"></path><path class="b" d="M127.79,312.77c9.31-1.99,19.28-7.18,25.93-13.56h-27.53c.4,4.39,1.06,8.91,1.6,13.56Z"></path><path class="b" d="M272.21,312.77c-9.31-1.99-19.28-7.18-25.93-13.56h27.53c-.4,4.39-1.06,8.91-1.6,13.56Z"></path><path class="b" d="M117.95,245.08c-8.64-51.46-25.53-105.05-43.88-140.43,19.81,10.77,41.09,27.79,63.96,51.2-9.44-2.39-18.88-4.39-28.46-5.85,13.17,31.12,24.07,63.03,34.04,95.21-8.51-.13-17.02-.13-25.67-.13Z"></path><path class="b" d="M282.05,245.08c8.64-51.46,25.53-105.05,43.88-140.43-19.81,10.77-41.09,27.79-63.96,51.2,9.44-2.53,18.88-4.52,28.32-5.98-13.17,31.12-24.07,63.03-34.04,95.21h25.8Z"></path><path class="b" d="M112.23,261.7v-10.11h175.53v10.11H112.23Z"></path><path class="b" d="M170.48,99.33c13.56-23.27,25.13-49.73,29.52-77.26,4.39,27.39,15.96,53.99,29.52,77.26-4.79-2.13-9.97-4.52-15.56-7.05-4.92-2.13-7.05-.93-6.78,4.12,1.6,49.47,8.91,105.72,34.71,148.67h-30.45c-4.79-11.44-8.64-22.61-11.44-33.78-2.93,11.17-6.65,22.34-11.44,33.78h-30.45c25.8-42.82,33.11-99.2,34.71-148.67,.13-5.05-1.86-6.38-6.78-4.12-5.72,2.53-10.77,4.92-15.56,7.05Z"></path><path class="b" d="M112.23,292.16v-10.11h175.53v10.11H112.23Z"></path></svg>