<svg xmlns="http://www.w3.org/2000/svg" xmlns:xlink="http://www.w3.org/1999/xlink" id="Capa_1" x="0px" y="0px" viewBox="0 0 400 400" style="enable-background:new 0 0 400 400;" xml:space="preserve"><style type="text/css">	.st0{fill:#1D2F51;}</style><g id="layer1">	<path id="path6381" class="st0" d="M199.9,328.1c-70,0-128.1-58.1-128.1-128.1c0-3.6,0.2-7.2,0.5-10.8l107.2,6.7l-46.4,32  c-0.6,0.4-1,1.2-1,2c0,1.3,1.1,2.4,2.4,2.4h189.2C309.2,287,258.8,328.1,199.9,328.1 M199.9,71.9C269.9,71.9,328,130,328,200  c0,3.6-0.2,7.2-0.5,10.7l-107.1-6.8l46.5-31.8c0.6-0.4,1-1.2,1-2c0-1.3-1.1-2.4-2.4-2.4H76.1C90.6,113,141.1,71.9,199.9,71.9   M383.6,214.3l-35-2.2c0.3-4,0.5-8,0.5-12.1c0-82.4-66.8-149.1-149.1-149.1c-71.3,0-130.8,50-145.6,116.8H26.8  c-1.8,0-3.4,0.9-4.4,2.2l-8.2,11.3c-0.4,0.5-0.6,1.1-0.6,1.7c0,1.6,1.2,2.8,2.8,2.8l34.9,2.2c-0.3,4-0.5,8.1-0.5,12.1  c0,82.4,66.8,149.1,149.1,149.1c71.3,0,130.8-50,145.6-116.8h27.6c1.8,0,3.4-0.9,4.4-2.2l8.2-11.3c0.4-0.5,0.6-1.1,0.6-1.7  C386.4,215.6,385.2,214.3,383.6,214.3"></path></g></svg>